<?xml version="1.0" encoding="UTF-8"?>
<svg width="61px" height="61px" viewBox="0 0 61 61" version="1.1" xmlns="http://www.w3.org/2000/svg" xmlns:xlink="http://www.w3.org/1999/xlink">
    <!-- Generator: Sketch 51.3 (57544) - http://www.bohemiancoding.com/sketch -->
    <title>Group 29</title>
    <desc>Created with Sketch.</desc>
    <defs></defs>
    <g id="APPLICATION" stroke="none" stroke-width="1" fill="none" fill-rule="evenodd" stroke-linecap="round">
        <g id="Teacher-module_application_step1_desktop" transform="translate(-802.000000, -328.000000)" stroke="#333333">
            <g id="Group-29" transform="translate(802.000000, 328.000000)">
                <path d="M60.4999,30.5 C60.4999,47.068 47.0689,60.5 30.4999,60.5 C13.9319,60.5 0.4999,47.068 0.4999,30.5 C0.4999,13.932 13.9319,0.5 30.4999,0.5 C47.0689,0.5 60.4999,13.932 60.4999,30.5 Z" id="Stroke-1"></path>
                <path d="M41.7123,26.2275 C41.7123,31.0675 38.4793,34.9355 35.3483,34.9355 C32.2183,34.9355 28.9843,31.1855 28.9843,26.3445 C28.9843,19.4575 31.3643,17.5805 35.3483,17.5805 C39.3323,17.5805 41.7123,19.4575 41.7123,26.2275 Z" id="Stroke-3"></path>
                <path d="M35.3486,39.0098 C26.8356,39.0098 19.6076,40.9778 19.6076,54.6278 L19.6076,57.7728" id="Stroke-5"></path>
                <path d="M25.0453,49.8936 L25.0453,59.5906" id="Stroke-7"></path>
                <path d="M25.0453,52.9365 L19.6483,52.9365" id="Stroke-9"></path>
                <path d="M35.3652,39.0098 C43.1592,39.0098 50.4152,40.6188 50.9552,51.4148 C50.9682,51.6718 50.9552,52.4448 50.9552,52.4448" id="Stroke-11"></path>
                <path d="M45.6679,49.8936 L45.6679,55.9556" id="Stroke-13"></path>
                <path d="M45.6679,52.9365 L50.4149,52.9365" id="Stroke-15"></path>
                <path d="M40.8031,23.2271 L23.2271,23.2271" id="Stroke-17"></path>
                <path d="M27.4697,13.457 L27.4697,17.166" id="Stroke-19"></path>
                <path d="M27.4697,17.1665 L24.2547,13.9835" id="Stroke-21"></path>
                <path d="M27.4697,13.457 C32.2377,12.279 34.5537,9.612 35.4787,6.258 C35.8367,4.96 36.0387,3.457 36.0327,1.409" id="Stroke-23"></path>
                <path d="M8.9843,10.7515 C11.0263,12.8635 14.5903,14.1365 20.8033,14.1365 C22.0583,14.1365 23.2053,14.0845 24.2543,13.9835" id="Stroke-25"></path>
                <path d="M8.7519,10.5 C8.8269,10.585 8.9039,10.669 8.9839,10.751" id="Stroke-27"></path>
            </g>
        </g>
    </g>
</svg>